<?xml version="1.0" encoding="utf-8"?>
<!-- Svg Vector Icons : http://www.onlinewebfonts.com/icon -->
<!DOCTYPE svg PUBLIC "-//W3C//DTD SVG 1.1//EN" "http://www.w3.org/Graphics/SVG/1.1/DTD/svg11.dtd">
<svg version="1.1" xmlns="http://www.w3.org/2000/svg" xmlns:xlink="http://www.w3.org/1999/xlink" x="0px" y="0px" viewBox="0 0 1000 1000" enable-background="new 0 0 1000 1000" xml:space="preserve">
<g><g transform="translate(0.000000,417.000000) scale(0.100000,-0.100000)"><path d="M422.4,3058.5c-107.2-38.3-197.2-116.8-258.5-225.9l-55.5-101.5l-5.7-3511.2c-5.8-3974.5-17.2-3647.2,147.4-3811.8C416.7-4758.5-25.6-4745,5000-4745c5025.6,0,4583.3-13.4,4749.9,153.2c164.7,164.6,153.2-162.7,147.4,3811.8l-5.7,3511.2l-57.4,103.4c-61.3,109.1-132.1,174.2-245.1,222.1c-61.3,24.9-572.5,28.7-4583.3,28.7C1381.6,3083.4,477.9,3079.6,422.4,3058.5z M9529.7,2715.8l46-53.6V-828v-3490.1l-49.8-51.7l-51.7-49.8H5000H525.8l-51.7,47.9l-49.8,46v3490.1c0,3176.2,1.9,3495.9,30.6,3534.2c17.2,24.9,49.8,51.7,72.7,61.3c23,9.6,2012.1,15.3,4497.2,13.4l4458.9-3.8L9529.7,2715.8z"/><path d="M1138.4,1737.5l-53.6-45.9l-5.7-2458.2c-1.9-1349.7,0-2485,5.7-2519.5c5.7-34.5,28.7-80.4,49.8-101.5c36.4-36.4,97.6-36.4,3865.4-36.4c3767.7,0,3829,0,3865.4,36.4c21,21.1,44,67,49.8,101.5c5.7,34.5,7.7,1169.8,5.7,2519.5l-5.7,2458.2l-53.6,45.9l-53.6,45.9H5000h-3808L1138.4,1737.5z M7297.4-829.9v-2287.8H4349.1H1400.7v2287.8V1458h2948.3h2948.3V-829.9z M8599.3-829.9v-2287.8h-497.8h-497.8v2287.8V1458h497.8h497.8V-829.9z"/><path d="M7885.2,983.2c-113-113-204.9-214.4-204.9-225.9c0-9.6,47.9-65.1,105.3-122.5l105.3-103.4l105.3,103.4l105.3,103.4l105.3-103.4l105.3-103.4L8427,644.3l114.9,114.9l-214.4,214.4c-118.7,118.7-220.2,216.3-225.9,216.3S7998.1,1098,7885.2,983.2z"/><path d="M7996.2,261.4l-47.9-45.9V-826c0-1018.5,0-1041.5,38.3-1081.7c21.1-23,59.3-46,84.2-53.6c53.6-13.4,155.1,34.5,172.3,78.5c5.7,17.2,11.5,499.7,11.5,1070.2V226.9l-44,40.2C8149.4,324.6,8055.5,322.7,7996.2,261.4z"/><path d="M7776-2304l-105.3-105.3l216.3-216.3l214.4-214.4l214.4,216.3l216.3,214.4l-109.1,109.1l-111,111l-105.3-105.3l-105.3-103.4l-101.5,99.6c-55.5,55.5-105.3,99.6-111,99.6C7885.2-2198.7,7833.5-2246.6,7776-2304z"/></g></g>
</svg>